<svg width="105" height="105" viewBox="0 0 105 105" fill="none" xmlns="http://www.w3.org/2000/svg">
<rect x="24.7488" y="-1.41421" width="115" height="37" rx="9" transform="rotate(45 24.7488 -1.41421)" fill="#1B1A1A" stroke="#29F1E3" stroke-width="2"/>
<path d="M16.2083 28.5384C15.4275 27.7576 14.8751 26.918 14.551 26.0193C14.2306 25.1244 14.144 24.2461 14.2913 23.3843C14.4387 22.5225 14.8309 21.7583 15.468 21.0917L17.7882 23.4119C17.3757 23.8759 17.2045 24.4155 17.2745 25.0305C17.3444 25.6455 17.6151 26.1888 18.0865 26.6602C18.4622 27.0358 18.8765 27.2844 19.3295 27.4059C19.7898 27.5275 20.2502 27.5201 20.7106 27.3838C21.1783 27.2476 21.6073 26.9843 21.9977 26.5939C22.3955 26.1961 22.6606 25.7615 22.7932 25.2901C22.9295 24.8224 22.935 24.3565 22.8098 23.8925C22.6846 23.4285 22.4341 23.0049 22.0585 22.6219C21.727 22.2905 21.3366 22.0363 20.8873 21.8596C20.4417 21.6865 20.0145 21.6312 19.6057 21.6938L17.86 19.1858L24.3621 13.7555L31.2785 20.6718L29.3229 22.6274L24.3787 17.6832L21.2519 20.2244L21.3182 20.2907C21.797 20.2097 22.3292 20.2778 22.9147 20.4951C23.5003 20.7124 24.0417 21.0696 24.5389 21.5668C25.2202 22.2481 25.6677 23.016 25.8813 23.8704C26.0949 24.7248 26.0765 25.5866 25.826 26.4558C25.5793 27.3212 25.0913 28.1149 24.3621 28.8367C23.6034 29.6028 22.749 30.1036 21.7988 30.3393C20.856 30.575 19.8966 30.5437 18.9207 30.2454C17.9521 29.9471 17.048 29.3781 16.2083 28.5384ZM26.4447 38.9627C25.4983 38.0089 24.9145 36.9574 24.6936 35.8084C24.4763 34.663 24.6236 33.4661 25.1355 32.2176C25.6511 30.9728 26.5295 29.7335 27.7706 28.4997C29.0043 27.266 30.2381 26.3968 31.4718 25.8923C32.7093 25.3914 33.8952 25.2552 35.0295 25.4835C36.1712 25.7118 37.2152 26.2992 38.1617 27.2457C39.1082 28.1922 39.6938 29.2345 39.9184 30.3725C40.1468 31.5142 40.0105 32.7037 39.5097 33.9412C39.0125 35.1749 38.1452 36.4068 36.9077 37.6369C35.6666 38.878 34.4218 39.7545 33.1733 40.2664C31.9285 40.782 30.7334 40.9312 29.5881 40.7139C28.4427 40.4966 27.3949 39.9129 26.4447 38.9627ZM28.428 36.9795C29.0761 37.6277 29.9195 37.8192 30.9581 37.554C31.9966 37.2889 33.1659 36.5026 34.466 35.1952C35.3241 34.3371 35.9502 33.5342 36.3442 32.7866C36.742 32.0426 36.9243 31.3668 36.8911 30.7592C36.8617 30.1552 36.6315 29.6377 36.2006 29.2068C35.5561 28.5624 34.7183 28.369 33.6871 28.6268C32.6559 28.8846 31.4958 29.6543 30.2068 30.9359C29.3376 31.8051 28.6987 32.6172 28.2899 33.3722C27.8884 34.1271 27.7024 34.8103 27.7319 35.4217C27.765 36.0293 27.9971 36.5486 28.428 36.9795ZM41.2816 49.0597L41.8782 48.4631C42.3312 48.0101 42.8431 47.6897 43.4139 47.5019C43.9921 47.314 44.5796 47.2901 45.1762 47.43C45.7802 47.57 46.3492 47.907 46.8832 48.441C47.4246 48.9824 47.7652 49.5514 47.9052 50.148C48.0488 50.7483 48.023 51.3339 47.8278 51.9047C47.64 52.4755 47.3178 52.9893 46.8611 53.446L46.2645 54.0426C45.8115 54.4956 45.2977 54.8178 44.7232 55.0093C44.1523 55.1972 43.5668 55.2193 42.9665 55.0756C42.3625 54.9357 41.7935 54.5987 41.2595 54.0647C40.7181 53.5233 40.3793 52.9525 40.243 52.3522C40.1031 51.7555 40.127 51.1718 40.3148 50.601C40.5063 50.0265 40.8286 49.5127 41.2816 49.0597ZM43.4857 50.0706L42.8891 50.6673C42.6276 50.9287 42.4435 51.2381 42.3367 51.5953C42.2336 51.9563 42.3496 52.3043 42.6847 52.6394C43.0199 52.9746 43.3624 53.0887 43.7122 52.9819C44.0658 52.8788 44.377 52.6928 44.6458 52.424L45.2425 51.8274C45.5113 51.5585 45.7028 51.2492 45.817 50.8993C45.9312 50.5494 45.8151 50.2014 45.469 49.8552C45.1375 49.5237 44.7913 49.4096 44.4304 49.5127C44.0695 49.6158 43.7546 49.8018 43.4857 50.0706ZM41.95 36.7792L42.5466 36.1826C43.0033 35.726 43.5189 35.4055 44.0934 35.2214C44.6716 35.0336 45.259 35.0096 45.8557 35.1496C46.456 35.2932 47.0194 35.6284 47.5461 36.155C48.0911 36.7001 48.4337 37.2709 48.5736 37.8675C48.7135 38.4641 48.6878 39.0497 48.4963 39.6242C48.3084 40.1951 47.9862 40.7088 47.5295 41.1655L46.9329 41.7621C46.4762 42.2188 45.9606 42.5392 45.3861 42.7234C44.8153 42.9112 44.2297 42.9333 43.6294 42.7897C43.0364 42.646 42.4711 42.3054 41.9334 41.7677C41.3957 41.23 41.0551 40.661 40.9114 40.0607C40.7752 39.4604 40.7991 38.8766 40.9833 38.3095C41.1748 37.7423 41.497 37.2322 41.95 36.7792ZM44.1652 37.8012L43.5686 38.3979C43.2998 38.6667 43.1138 38.9779 43.0107 39.3315C42.9112 39.6887 43.0235 40.0294 43.3476 40.3534C43.6865 40.6923 44.0308 40.8083 44.3807 40.7015C44.7342 40.5984 45.0454 40.4124 45.3143 40.1435L45.9109 39.5469C46.1798 39.2781 46.3713 38.9687 46.4854 38.6188C46.5996 38.269 46.4817 37.9191 46.1319 37.5692C45.8041 37.2414 45.4598 37.1328 45.0988 37.2433C44.7379 37.3538 44.4267 37.5398 44.1652 37.8012ZM34.0834 46.1042L53.1753 42.5687L54.6227 44.016L35.5308 47.5516L34.0834 46.1042ZM66.0565 66.7636C64.8228 67.9974 63.5393 68.8131 62.2061 69.2109C60.8766 69.6123 59.5821 69.6399 58.3226 69.2937C57.0704 68.9475 55.9453 68.2754 54.9472 67.2774C53.9418 66.272 53.2679 65.1413 52.9253 63.8855C52.5828 62.6296 52.6123 61.3369 53.0137 60.0074C53.4152 58.6779 54.2309 57.3981 55.461 56.1681C56.6947 54.9343 57.9764 54.1167 59.3059 53.7153C60.6354 53.3139 61.9262 53.2862 63.1784 53.6324C64.4342 53.9749 65.5649 54.6489 66.5703 55.6543C67.5684 56.6524 68.2386 57.7793 68.5811 59.0352C68.931 60.291 68.9052 61.5837 68.5038 62.9132C68.106 64.2464 67.2903 65.5299 66.0565 66.7636ZM63.6314 64.3385C64.4306 63.5393 64.9848 62.7456 65.2942 61.9575C65.6072 61.1731 65.6901 60.4236 65.5428 59.7091C65.3955 58.9946 65.0327 58.3483 64.4545 57.7701C63.8763 57.1919 63.23 56.8291 62.5155 56.6818C61.801 56.5345 61.0497 56.6155 60.2616 56.9249C59.4771 57.2379 58.6853 57.794 57.8861 58.5932C57.087 59.3924 56.5309 60.1842 56.2178 60.9687C55.9085 61.7568 55.8274 62.5081 55.9747 63.2226C56.1221 63.937 56.4848 64.5834 57.063 65.1616C57.6412 65.7398 58.2876 66.1025 59.002 66.2499C59.7165 66.3972 60.466 66.3143 61.2504 66.0013C62.0386 65.6919 62.8322 65.1376 63.6314 64.3385ZM62.1716 74.1924L73.4853 62.8787L80.9762 70.3696L79.0041 72.3417L73.9052 67.2428L71.2093 69.9387L75.811 74.5404L73.8389 76.5126L69.2371 71.9109L64.5636 76.5844L62.1716 74.1924ZM71.2715 83.2922L82.5852 71.9785L90.0761 79.4694L88.1039 81.4416L83.005 76.3427L80.3092 79.0385L84.9109 83.6403L82.9387 85.6124L78.337 81.0107L73.6635 85.6842L71.2715 83.2922Z" fill="#29F1E3"/>
</svg>
