<svg width="326" height="187" viewBox="0 0 326 187" fill="none" xmlns="http://www.w3.org/2000/svg">
<g filter="url(#filter0_i_262_490)">
<path d="M60.2592 26.7024H47.7749C47.4188 24.6551 46.7623 22.8414 45.8054 21.2614C44.8485 19.6591 43.6579 18.3016 42.2337 17.1889C40.8094 16.0762 39.1849 15.2417 37.3601 14.6854C35.5575 14.1068 33.6103 13.8175 31.5185 13.8175C27.8021 13.8175 24.5085 14.7521 21.6378 16.6214C18.767 18.4685 16.5194 21.1835 14.8949 24.7663C13.2704 28.3269 12.4581 32.6776 12.4581 37.8182C12.4581 43.0478 13.2704 47.4541 14.8949 51.0369C16.5417 54.5975 18.7893 57.2902 21.6378 59.1151C24.5085 60.9176 27.791 61.8189 31.4851 61.8189C33.5324 61.8189 35.4463 61.5518 37.2266 61.0178C39.0291 60.4614 40.6425 59.6491 42.0668 58.581C43.5133 57.5128 44.7261 56.1998 45.7053 54.642C46.7067 53.0843 47.3965 51.304 47.7749 49.3011L60.2592 49.3679C59.7919 52.617 58.7794 55.6657 57.2216 58.5142C55.6861 61.3627 53.6721 63.8774 51.1797 66.0582C48.6873 68.2169 45.772 69.9081 42.434 71.1321C39.0959 72.3338 35.3906 72.9347 31.3182 72.9347C25.3097 72.9347 19.9465 71.5438 15.2287 68.7621C10.5109 65.9804 6.79451 61.9635 4.07955 56.7116C1.36458 51.4598 0.0071024 45.1619 0.0071024 37.8182C0.0071024 30.4522 1.37571 24.1544 4.11293 18.9247C6.85014 13.6728 10.5777 9.65601 15.2955 6.87429C20.0133 4.09256 25.3542 2.7017 31.3182 2.7017C35.1236 2.7017 38.6619 3.23579 41.9332 4.30397C45.2045 5.37216 48.1198 6.94105 50.679 9.01065C53.2382 11.058 55.3411 13.5727 56.9879 16.5547C58.657 19.5144 59.7474 22.897 60.2592 26.7024ZM83.15 41.9574V72H71.0662V3.63636H82.883V29.4396H83.4838C84.6855 26.5466 86.5437 24.2656 89.0584 22.5966C91.5953 20.9053 94.8221 20.0597 98.7388 20.0597C102.299 20.0597 105.404 20.8052 108.052 22.2962C110.7 23.7872 112.748 25.968 114.194 28.8388C115.663 31.7095 116.397 35.2145 116.397 39.3537V72H104.313V41.223C104.313 37.7737 103.423 35.0921 101.643 33.1783C99.8849 31.2422 97.4147 30.2741 94.2324 30.2741C92.0961 30.2741 90.1822 30.7415 88.4909 31.6761C86.8219 32.5885 85.5089 33.9126 84.552 35.6484C83.6174 37.3842 83.15 39.4872 83.15 41.9574ZM143.469 73.0348C140.22 73.0348 137.294 72.4562 134.69 71.299C132.108 70.1196 130.061 68.3838 128.548 66.0916C127.057 63.7995 126.311 60.9732 126.311 57.6129C126.311 54.7199 126.845 52.3277 127.914 50.4361C128.982 48.5445 130.439 47.0312 132.286 45.8963C134.133 44.7614 136.214 43.9046 138.529 43.326C140.865 42.7251 143.28 42.2912 145.772 42.0241C148.776 41.7126 151.213 41.4344 153.083 41.1896C154.952 40.9226 156.309 40.522 157.155 39.9879C158.023 39.4316 158.457 38.5748 158.457 37.4176V37.2173C158.457 34.7027 157.711 32.7554 156.22 31.3757C154.729 29.996 152.582 29.3061 149.778 29.3061C146.818 29.3061 144.47 29.9515 142.735 31.2422C141.021 32.5329 139.864 34.0573 139.263 35.8153L127.98 34.2131C128.87 31.0975 130.339 28.4938 132.387 26.402C134.434 24.2879 136.937 22.7079 139.897 21.6619C142.857 20.5938 146.128 20.0597 149.711 20.0597C152.181 20.0597 154.64 20.349 157.088 20.9276C159.536 21.5062 161.773 22.4631 163.798 23.7983C165.823 25.1113 167.447 26.9027 168.671 29.1726C169.918 31.4425 170.541 34.2798 170.541 37.6847V72H158.924V64.9567H158.524C157.789 66.3809 156.754 67.7161 155.419 68.9624C154.106 70.1863 152.448 71.1766 150.445 71.9332C148.465 72.6676 146.139 73.0348 143.469 73.0348ZM146.607 64.1555C149.032 64.1555 151.135 63.6771 152.916 62.7202C154.696 61.741 156.065 60.4503 157.021 58.848C158.001 57.2457 158.49 55.4988 158.49 53.6072V47.5653C158.112 47.8769 157.467 48.1662 156.554 48.4332C155.664 48.7003 154.663 48.9339 153.55 49.1342C152.437 49.3345 151.336 49.5125 150.245 49.6683C149.155 49.8241 148.209 49.9576 147.408 50.0689C145.605 50.3137 143.992 50.7143 142.568 51.2706C141.143 51.8269 140.02 52.6058 139.196 53.6072C138.373 54.5864 137.961 55.8549 137.961 57.4126C137.961 59.638 138.773 61.3182 140.398 62.4531C142.022 63.5881 144.092 64.1555 146.607 64.1555ZM182.691 72V20.7273H194.408V29.2727H194.942C195.877 26.313 197.479 24.032 199.749 22.4297C202.041 20.8052 204.656 19.9929 207.593 19.9929C208.261 19.9929 209.006 20.0263 209.83 20.093C210.675 20.1375 211.376 20.2154 211.933 20.3267V31.4425C211.421 31.2644 210.609 31.1087 209.496 30.9751C208.405 30.8194 207.348 30.7415 206.325 30.7415C204.122 30.7415 202.141 31.2199 200.383 32.1768C198.647 33.1115 197.279 34.4134 196.277 36.0824C195.276 37.7514 194.775 39.6764 194.775 41.8572V72H182.691ZM219.961 72V20.7273H232.045V72H219.961ZM226.036 13.4503C224.122 13.4503 222.475 12.8161 221.096 11.5476C219.716 10.2569 219.026 8.71022 219.026 6.90767C219.026 5.08286 219.716 3.53622 221.096 2.26775C222.475 0.977033 224.122 0.331674 226.036 0.331674C227.972 0.331674 229.619 0.977033 230.976 2.26775C232.356 3.53622 233.046 5.08286 233.046 6.90767C233.046 8.71022 232.356 10.2569 230.976 11.5476C229.619 12.8161 227.972 13.4503 226.036 13.4503ZM270.074 20.7273V30.0739H240.598V20.7273H270.074ZM247.875 8.44318H259.959V56.5781C259.959 58.2027 260.204 59.4489 260.694 60.3168C261.205 61.1624 261.873 61.741 262.696 62.0526C263.52 62.3641 264.432 62.5199 265.434 62.5199C266.19 62.5199 266.88 62.4643 267.503 62.353C268.149 62.2417 268.638 62.1416 268.972 62.0526L271.008 71.4993C270.363 71.7218 269.439 71.9666 268.238 72.2337C267.058 72.5007 265.612 72.6565 263.898 72.701C260.872 72.79 258.145 72.3338 255.72 71.3324C253.294 70.3087 251.369 68.7287 249.945 66.5923C248.543 64.456 247.853 61.7855 247.875 58.581V8.44318ZM287.69 91.2273C286.043 91.2273 284.519 91.0938 283.117 90.8267C281.737 90.5819 280.636 90.2926 279.812 89.9588L282.616 80.5455C284.374 81.0573 285.943 81.3021 287.323 81.2798C288.703 81.2576 289.916 80.8236 290.961 79.978C292.03 79.1546 292.931 77.7749 293.665 75.8388L294.7 73.0682L276.107 20.7273H288.925L300.742 59.4489H301.276L313.126 20.7273H325.978L305.449 78.2088C304.492 80.9238 303.223 83.2493 301.643 85.1854C300.063 87.1437 298.127 88.6347 295.835 89.6584C293.565 90.7043 290.85 91.2273 287.69 91.2273ZM1.7429 186V117.636H46.206V128.018H14.1271V146.577H43.9027V156.959H14.1271V175.619H46.473V186H1.7429ZM104.105 134.727L85.8455 186H72.4933L54.234 134.727H67.119L78.9023 172.815H79.4364L91.2532 134.727H104.105ZM133.421 187.001C128.281 187.001 123.841 185.933 120.102 183.797C116.386 181.638 113.526 178.589 111.524 174.651C109.521 170.689 108.519 166.027 108.519 160.664C108.519 155.39 109.521 150.761 111.524 146.778C113.549 142.772 116.375 139.656 120.002 137.431C123.63 135.183 127.891 134.06 132.787 134.06C135.947 134.06 138.929 134.571 141.733 135.595C144.559 136.597 147.052 138.154 149.21 140.268C151.391 142.383 153.105 145.075 154.351 148.347C155.597 151.596 156.22 155.468 156.22 159.963V163.668H114.194V155.523H144.637C144.615 153.209 144.114 151.151 143.135 149.348C142.156 147.523 140.787 146.088 139.029 145.042C137.294 143.996 135.268 143.473 132.954 143.473C130.484 143.473 128.314 144.074 126.445 145.276C124.575 146.455 123.118 148.013 122.072 149.949C121.048 151.863 120.525 153.966 120.503 156.258V163.368C120.503 166.35 121.048 168.909 122.139 171.045C123.229 173.16 124.753 174.784 126.712 175.919C128.67 177.032 130.962 177.588 133.588 177.588C135.346 177.588 136.937 177.343 138.362 176.854C139.786 176.342 141.021 175.596 142.067 174.617C143.113 173.638 143.903 172.425 144.437 170.979L155.72 172.247C155.008 175.229 153.65 177.833 151.647 180.058C149.667 182.261 147.13 183.975 144.036 185.199C140.943 186.401 137.405 187.001 133.421 187.001ZM178.527 155.957V186H166.443V134.727H177.993V143.44H178.594C179.773 140.569 181.654 138.288 184.235 136.597C186.839 134.905 190.054 134.06 193.882 134.06C197.42 134.06 200.503 134.816 203.129 136.33C205.777 137.843 207.824 140.035 209.271 142.906C210.739 145.776 211.463 149.259 211.44 153.354V186H199.357V155.223C199.357 151.796 198.466 149.114 196.686 147.178C194.928 145.242 192.491 144.274 189.376 144.274C187.262 144.274 185.381 144.741 183.734 145.676C182.11 146.589 180.83 147.913 179.896 149.648C178.983 151.384 178.527 153.487 178.527 155.957ZM249.327 134.727V144.074H219.852V134.727H249.327ZM227.129 122.443H239.213V170.578C239.213 172.203 239.458 173.449 239.947 174.317C240.459 175.162 241.127 175.741 241.95 176.053C242.774 176.364 243.686 176.52 244.688 176.52C245.444 176.52 246.134 176.464 246.757 176.353C247.402 176.242 247.892 176.142 248.226 176.053L250.262 185.499C249.617 185.722 248.693 185.967 247.491 186.234C246.312 186.501 244.866 186.656 243.152 186.701C240.125 186.79 237.399 186.334 234.974 185.332C232.548 184.309 230.623 182.729 229.199 180.592C227.797 178.456 227.107 175.786 227.129 172.581V122.443Z" fill="#24C585"/>
</g>
<defs>
<filter id="filter0_i_262_490" x="0.00708008" y="0.331665" width="329.971" height="190.67" filterUnits="userSpaceOnUse" color-interpolation-filters="sRGB">
<feFlood flood-opacity="0" result="BackgroundImageFix"/>
<feBlend mode="normal" in="SourceGraphic" in2="BackgroundImageFix" result="shape"/>
<feColorMatrix in="SourceAlpha" type="matrix" values="0 0 0 0 0 0 0 0 0 0 0 0 0 0 0 0 0 0 127 0" result="hardAlpha"/>
<feOffset dx="4" dy="4"/>
<feGaussianBlur stdDeviation="3.65"/>
<feComposite in2="hardAlpha" operator="arithmetic" k2="-1" k3="1"/>
<feColorMatrix type="matrix" values="0 0 0 0 0 0 0 0 0 0 0 0 0 0 0 0 0 0 0.79 0"/>
<feBlend mode="normal" in2="shape" result="effect1_innerShadow_262_490"/>
</filter>
</defs>
</svg>
