<svg width="311" height="47" viewBox="0 0 311 47" fill="none" xmlns="http://www.w3.org/2000/svg">
<g filter="url(#filter0_i_264_743)">
<path d="M31.3239 13.8693H24.9489C24.767 12.8239 24.4318 11.8977 23.9432 11.0909C23.4545 10.2727 22.8466 9.57954 22.1193 9.01136C21.392 8.44318 20.5625 8.01704 19.6307 7.73295C18.7102 7.4375 17.7159 7.28977 16.6477 7.28977C14.75 7.28977 13.0682 7.76705 11.6023 8.72159C10.1364 9.66477 8.98864 11.0511 8.15909 12.8807C7.32955 14.6989 6.91477 16.9205 6.91477 19.5455C6.91477 22.2159 7.32955 24.4659 8.15909 26.2955C9 28.1136 10.1477 29.4886 11.6023 30.4205C13.0682 31.3409 14.7443 31.8011 16.6307 31.8011C17.6761 31.8011 18.6534 31.6648 19.5625 31.392C20.483 31.108 21.3068 30.6932 22.0341 30.1477C22.7727 29.6023 23.392 28.9318 23.892 28.1364C24.4034 27.3409 24.7557 26.4318 24.9489 25.4091L31.3239 25.4432C31.0852 27.1023 30.5682 28.6591 29.7727 30.1136C28.9886 31.5682 27.9602 32.8523 26.6875 33.9659C25.4148 35.0682 23.9261 35.9318 22.2216 36.5568C20.517 37.1705 18.625 37.4773 16.5455 37.4773C13.4773 37.4773 10.7386 36.767 8.32955 35.3466C5.92045 33.9261 4.02273 31.875 2.63636 29.1932C1.25 26.5114 0.556818 23.2955 0.556818 19.5455C0.556818 15.7841 1.25568 12.5682 2.65341 9.89773C4.05114 7.21591 5.95455 5.16477 8.36364 3.74432C10.7727 2.32386 13.5 1.61364 16.5455 1.61364C18.4886 1.61364 20.2955 1.88636 21.9659 2.43182C23.6364 2.97727 25.125 3.77841 26.4318 4.83523C27.7386 5.88068 28.8125 7.16477 29.6534 8.6875C30.5057 10.1989 31.0625 11.9261 31.3239 13.8693ZM43.0128 21.6591V37H36.8423V2.09091H42.8764V15.267H43.1832C43.7969 13.7898 44.7457 12.625 46.0298 11.7727C47.3253 10.9091 48.973 10.4773 50.973 10.4773C52.7912 10.4773 54.3764 10.858 55.7287 11.6193C57.081 12.3807 58.1264 13.4943 58.8651 14.9602C59.6151 16.4261 59.9901 18.2159 59.9901 20.3295V37H53.8196V21.2841C53.8196 19.5227 53.3651 18.1534 52.456 17.1761C51.5582 16.1875 50.2969 15.6932 48.6719 15.6932C47.581 15.6932 46.6037 15.9318 45.7401 16.4091C44.8878 16.875 44.2173 17.5511 43.7287 18.4375C43.2514 19.3239 43.0128 20.3977 43.0128 21.6591ZM73.8139 37.5284C72.1548 37.5284 70.6605 37.233 69.331 36.642C68.0128 36.0398 66.9673 35.1534 66.1946 33.983C65.4332 32.8125 65.0526 31.3693 65.0526 29.6534C65.0526 28.1761 65.3253 26.9545 65.8707 25.9886C66.4162 25.0227 67.1605 24.25 68.1037 23.6705C69.0469 23.0909 70.1094 22.6534 71.2912 22.358C72.4844 22.0511 73.7173 21.8295 74.9901 21.6932C76.5241 21.5341 77.7685 21.392 78.723 21.267C79.6776 21.1307 80.3707 20.9261 80.8026 20.6534C81.2457 20.3693 81.4673 19.9318 81.4673 19.3409V19.2386C81.4673 17.9545 81.0866 16.9602 80.3253 16.2557C79.5639 15.5511 78.4673 15.1989 77.0355 15.1989C75.5241 15.1989 74.3253 15.5284 73.4389 16.1875C72.5639 16.8466 71.973 17.625 71.6662 18.5227L65.9048 17.7045C66.3594 16.1136 67.1094 14.7841 68.1548 13.7159C69.2003 12.6364 70.4787 11.8295 71.9901 11.2955C73.5014 10.75 75.1719 10.4773 77.0014 10.4773C78.2628 10.4773 79.5185 10.625 80.7685 10.9205C82.0185 11.2159 83.1605 11.7045 84.1946 12.3864C85.2287 13.0568 86.0582 13.9716 86.6832 15.1307C87.3196 16.2898 87.6378 17.7386 87.6378 19.4773V37H81.706V33.4034H81.5014C81.1264 34.1307 80.598 34.8125 79.9162 35.4489C79.2457 36.0739 78.3991 36.5795 77.3764 36.9659C76.3651 37.3409 75.1776 37.5284 73.8139 37.5284ZM75.4162 32.9943C76.6548 32.9943 77.7287 32.75 78.6378 32.2614C79.5469 31.7614 80.2457 31.1023 80.7344 30.2841C81.2344 29.4659 81.4844 28.5739 81.4844 27.608V24.5227C81.2912 24.6818 80.9616 24.8295 80.4957 24.9659C80.0412 25.1023 79.5298 25.2216 78.9616 25.3239C78.3935 25.4261 77.831 25.517 77.2741 25.5966C76.7173 25.6761 76.2344 25.7443 75.8253 25.8011C74.9048 25.9261 74.081 26.1307 73.3537 26.4148C72.6264 26.6989 72.0526 27.0966 71.6321 27.608C71.2116 28.108 71.0014 28.7557 71.0014 29.5511C71.0014 30.6875 71.4162 31.5455 72.2457 32.125C73.0753 32.7045 74.1321 32.9943 75.4162 32.9943ZM93.8423 37V10.8182H99.8253V15.1818H100.098C100.575 13.6705 101.393 12.5057 102.553 11.6875C103.723 10.858 105.058 10.4432 106.558 10.4432C106.899 10.4432 107.28 10.4602 107.7 10.4943C108.132 10.517 108.49 10.5568 108.774 10.6136V16.2898C108.513 16.1989 108.098 16.1193 107.53 16.0511C106.973 15.9716 106.433 15.9318 105.911 15.9318C104.786 15.9318 103.774 16.1761 102.876 16.6648C101.99 17.142 101.291 17.8068 100.78 18.6591C100.268 19.5114 100.013 20.4943 100.013 21.608V37H93.8423ZM112.874 37V10.8182H119.044V37H112.874ZM115.976 7.10227C114.999 7.10227 114.158 6.77841 113.453 6.13068C112.749 5.47159 112.396 4.68182 112.396 3.76136C112.396 2.82954 112.749 2.03977 113.453 1.39204C114.158 0.732953 114.999 0.403408 115.976 0.403408C116.964 0.403408 117.805 0.732953 118.499 1.39204C119.203 2.03977 119.555 2.82954 119.555 3.76136C119.555 4.68182 119.203 5.47159 118.499 6.13068C117.805 6.77841 116.964 7.10227 115.976 7.10227ZM138.463 10.8182V15.5909H123.412V10.8182H138.463ZM127.128 4.54545H133.298V29.125C133.298 29.9545 133.423 30.5909 133.673 31.0341C133.935 31.4659 134.276 31.7614 134.696 31.9205C135.116 32.0795 135.582 32.1591 136.094 32.1591C136.48 32.1591 136.832 32.1307 137.151 32.0739C137.48 32.017 137.73 31.9659 137.901 31.9205L138.94 36.7443C138.611 36.858 138.139 36.983 137.526 37.1193C136.923 37.2557 136.185 37.3352 135.31 37.358C133.764 37.4034 132.372 37.1705 131.134 36.6591C129.895 36.1364 128.912 35.3295 128.185 34.2386C127.469 33.1477 127.116 31.7841 127.128 30.1477V4.54545ZM147.459 46.8182C146.618 46.8182 145.839 46.75 145.124 46.6136C144.419 46.4886 143.857 46.3409 143.436 46.1705L144.868 41.3636C145.766 41.625 146.567 41.75 147.271 41.7386C147.976 41.7273 148.595 41.5057 149.129 41.0739C149.675 40.6534 150.135 39.9489 150.51 38.9602L151.038 37.5455L141.544 10.8182H148.089L154.124 30.5909H154.396L160.447 10.8182H167.01L156.527 40.1705C156.038 41.5568 155.391 42.7443 154.584 43.733C153.777 44.733 152.788 45.4943 151.618 46.017C150.459 46.5511 149.072 46.8182 147.459 46.8182ZM183.459 37V2.09091H206.163V7.39205H189.783V16.8693H204.987V22.1705H189.783V31.6989H206.3V37H183.459ZM235.729 10.8182L226.405 37H219.587L210.263 10.8182H216.842L222.859 30.267H223.132L229.166 10.8182H235.729ZM250.699 37.5114C248.074 37.5114 245.807 36.9659 243.898 35.875C242 34.7727 240.54 33.2159 239.517 31.2045C238.494 29.1818 237.983 26.8011 237.983 24.0625C237.983 21.3693 238.494 19.0057 239.517 16.9716C240.551 14.9261 241.994 13.3352 243.847 12.1989C245.699 11.0511 247.875 10.4773 250.375 10.4773C251.989 10.4773 253.511 10.7386 254.943 11.2614C256.386 11.7727 257.659 12.5682 258.761 13.6477C259.875 14.7273 260.75 16.1023 261.386 17.7727C262.023 19.4318 262.341 21.4091 262.341 23.7045V25.5966H240.881V21.4375H256.426C256.415 20.2557 256.159 19.2045 255.659 18.2841C255.159 17.3523 254.46 16.6193 253.562 16.0852C252.676 15.5511 251.642 15.2841 250.46 15.2841C249.199 15.2841 248.091 15.5909 247.136 16.2045C246.182 16.8068 245.438 17.6023 244.903 18.5909C244.381 19.5682 244.114 20.642 244.102 21.8125V25.4432C244.102 26.9659 244.381 28.2727 244.938 29.3636C245.494 30.4432 246.273 31.2727 247.273 31.8523C248.273 32.4205 249.443 32.7045 250.784 32.7045C251.682 32.7045 252.494 32.5795 253.222 32.3295C253.949 32.0682 254.58 31.6875 255.114 31.1875C255.648 30.6875 256.051 30.0682 256.324 29.3295L262.085 29.9773C261.722 31.5 261.028 32.8295 260.006 33.9659C258.994 35.0909 257.699 35.9659 256.119 36.5909C254.54 37.2045 252.733 37.5114 250.699 37.5114ZM273.732 21.6591V37H267.561V10.8182H273.459V15.267H273.766C274.368 13.8011 275.328 12.6364 276.646 11.7727C277.976 10.9091 279.618 10.4773 281.572 10.4773C283.379 10.4773 284.953 10.8636 286.294 11.6364C287.646 12.4091 288.692 13.5284 289.43 14.9943C290.18 16.4602 290.55 18.2386 290.538 20.3295V37H284.368V21.2841C284.368 19.5341 283.913 18.1648 283.004 17.1761C282.107 16.1875 280.862 15.6932 279.271 15.6932C278.192 15.6932 277.232 15.9318 276.391 16.4091C275.561 16.875 274.908 17.5511 274.43 18.4375C273.964 19.3239 273.732 20.3977 273.732 21.6591ZM309.885 10.8182V15.5909H294.834V10.8182H309.885ZM298.55 4.54545H304.72V29.125C304.72 29.9545 304.845 30.5909 305.095 31.0341C305.357 31.4659 305.697 31.7614 306.118 31.9205C306.538 32.0795 307.004 32.1591 307.516 32.1591C307.902 32.1591 308.254 32.1307 308.572 32.0739C308.902 32.017 309.152 31.9659 309.322 31.9205L310.362 36.7443C310.033 36.858 309.561 36.983 308.947 37.1193C308.345 37.2557 307.607 37.3352 306.732 37.358C305.186 37.4034 303.794 37.1705 302.555 36.6591C301.317 36.1364 300.334 35.3295 299.607 34.2386C298.891 33.1477 298.538 31.7841 298.55 30.1477V4.54545Z" fill="#24C585"/>
</g>
<defs>
<filter id="filter0_i_264_743" x="0.556885" y="0.403381" width="313.805" height="50.4148" filterUnits="userSpaceOnUse" color-interpolation-filters="sRGB">
<feFlood flood-opacity="0" result="BackgroundImageFix"/>
<feBlend mode="normal" in="SourceGraphic" in2="BackgroundImageFix" result="shape"/>
<feColorMatrix in="SourceAlpha" type="matrix" values="0 0 0 0 0 0 0 0 0 0 0 0 0 0 0 0 0 0 127 0" result="hardAlpha"/>
<feOffset dx="4" dy="4"/>
<feGaussianBlur stdDeviation="3.65"/>
<feComposite in2="hardAlpha" operator="arithmetic" k2="-1" k3="1"/>
<feColorMatrix type="matrix" values="0 0 0 0 0 0 0 0 0 0 0 0 0 0 0 0 0 0 0.54 0"/>
<feBlend mode="normal" in2="shape" result="effect1_innerShadow_264_743"/>
</filter>
</defs>
</svg>
